<?xml version="1.0" encoding="utf-8"?>
<!-- Generator: Adobe Illustrator 25.0.1, SVG Export Plug-In . SVG Version: 6.00 Build 0)  -->
<svg version="1.1" id="Layer_1" xmlns="http://www.w3.org/2000/svg" xmlns:xlink="http://www.w3.org/1999/xlink" x="0px" y="0px"
	 viewBox="0 0 1169.3 714" style="enable-background:new 0 0 1169.3 714;" xml:space="preserve">
<style type="text/css">
	.st0{fill:#FFFFFF;}
	.st1{fill:#8B5E3C;}
	.st2{fill:#F8A727;}
	.st3{fill:#EA9723;}
	.st4{fill:#B09DCA;}
	.st5{fill:#8B75B5;}
	.st6{fill:#F27C21;}
	.st7{fill:#FBF8C6;}
	.st8{fill:#F6A825;}
	.st9{fill:#FDD836;}
	.st10{fill:#754C29;}
	.st11{fill:#F1F2F2;}
	.st12{fill:#D0C3E0;}
	.st13{fill:#7F64AC;}
</style>
<g id="XMLID_156_">
	<path id="XMLID_166_" class="st0" d="M596.9,78.9h62.5c40.9,0,61,22.7,61,64.4V275c0,41.7-20.1,64.4-61,64.4h-62.5V78.9z
		 M658.7,302.2c13,0,20.8-6.7,20.8-25.3V141.4c0-18.6-7.8-25.3-20.8-25.3h-20.8v186.1L658.7,302.2L658.7,302.2z"/>
	<path id="XMLID_163_" class="st0" d="M745,277.6V140.7c0-41.7,22-65.5,62.1-65.5c40.2,0,62.1,23.8,62.1,65.5v136.9
		c0,41.7-22,65.5-62.1,65.5C767,343.1,745,319.3,745,277.6z M828.4,280.2V138.1c0-18.6-8.2-25.7-21.2-25.7s-21.2,7.1-21.2,25.7
		v142.2c0,18.6,8.2,25.7,21.2,25.7C820.2,305.9,828.4,298.9,828.4,280.2z"/>
	<path id="XMLID_160_" class="st0" d="M896.9,78.9h62.5c40.9,0,61,22.7,61,64.4V275c0,41.7-20.1,64.4-61,64.4h-62.5V78.9z
		 M958.7,302.2c13,0,20.8-6.7,20.8-25.3V141.4c0-18.6-7.8-25.3-20.8-25.3h-20.8v186.1L958.7,302.2L958.7,302.2z"/>
	<path id="XMLID_157_" class="st0" d="M1045,277.6V140.7c0-41.7,22-65.5,62.1-65.5c40.2,0,62.1,23.8,62.1,65.5v136.9
		c0,41.7-22,65.5-62.1,65.5C1066.9,343.1,1045,319.3,1045,277.6z M1128.3,280.2V138.1c0-18.6-8.2-25.7-21.2-25.7
		s-21.2,7.1-21.2,25.7v142.2c0,18.6,8.2,25.7,21.2,25.7C1120.2,305.9,1128.3,298.9,1128.3,280.2z"/>
</g>
<g id="XMLID_126_">
	<path id="XMLID_154_" class="st0" d="M607.3,453h-9.7c-0.5,0-0.7-0.3-0.7-0.8v-0.8c0-0.4,0.3-0.7,0.7-0.7h21.7
		c0.4,0,0.7,0.3,0.7,0.7v0.9c0,0.4-0.3,0.7-0.7,0.7h-9.7v32.6c0,0.4-0.3,0.7-0.8,0.7h-0.9c-0.4,0-0.7-0.3-0.7-0.7V453L607.3,453
		L607.3,453z"/>
	<path id="XMLID_152_" class="st0" d="M646,451.5c0-0.4,0.3-0.7,0.7-0.7h1.1c0.4,0,0.7,0.3,0.7,0.7V467h22.7v-15.5
		c0-0.4,0.3-0.7,0.7-0.7h1.1c0.4,0,0.7,0.3,0.7,0.7v34.1c0,0.4-0.3,0.7-0.7,0.7h-1.1c-0.4,0-0.7-0.3-0.7-0.7v-16.4h-22.8v16.4
		c0,0.4-0.3,0.7-0.7,0.7h-1.1c-0.4,0-0.7-0.3-0.7-0.7L646,451.5L646,451.5z"/>
	<path id="XMLID_150_" class="st0" d="M704.4,451.5c0-0.4,0.3-0.7,0.7-0.7h20.3c0.4,0,0.7,0.3,0.7,0.7v0.9c0,0.4-0.3,0.7-0.7,0.7
		h-18.5v14h16c0.4,0,0.7,0.3,0.7,0.7v0.9c0,0.4-0.3,0.7-0.7,0.7h-16v15h18.5c0.4,0,0.7,0.3,0.7,0.7v0.8c0,0.4-0.3,0.7-0.7,0.7h-20.3
		c-0.4,0-0.7-0.3-0.7-0.7V451.5z"/>
	<path id="XMLID_148_" class="st0" d="M791.4,453h-9.7c-0.5,0-0.7-0.3-0.7-0.8v-0.8c0-0.4,0.3-0.7,0.7-0.7h21.7
		c0.4,0,0.7,0.3,0.7,0.7v0.9c0,0.4-0.3,0.7-0.7,0.7h-9.7v32.6c0,0.4-0.3,0.7-0.8,0.7H792c-0.4,0-0.7-0.3-0.7-0.7V453L791.4,453
		L791.4,453z"/>
	<path id="XMLID_145_" class="st0" d="M845.1,450.3c10.2,0,18.2,8.1,18.2,18.2c0,10.2-8.1,18.1-18.2,18.1c-10.1,0-18.2-8-18.2-18.1
		C826.9,458.5,835,450.3,845.1,450.3z M845.1,484.5c8.8,0,16-7.1,16-15.9s-7.2-16-16-16s-16,7.2-16,16S836.3,484.5,845.1,484.5z"/>
	<path id="XMLID_142_" class="st0" d="M891.8,451.5c0-0.4,0.3-0.7,0.6-0.7h10.7c9.8,0,17.8,7.9,17.8,17.6c0,9.9-8,17.7-17.8,17.7
		h-10.7c-0.3,0-0.6-0.3-0.6-0.7V451.5z M902.7,484.1c8.8,0,15.7-6.7,15.7-15.6c0-8.7-6.8-15.5-15.7-15.5h-8.5v31L902.7,484.1
		L902.7,484.1z"/>
	<path id="XMLID_139_" class="st0" d="M965,450.3c10.2,0,18.3,8.1,18.3,18.2c0,10.2-8.1,18.1-18.3,18.1c-10.1,0-18.2-8-18.2-18.1
		C946.8,458.5,954.9,450.3,965,450.3z M965,484.5c8.8,0,16-7.1,16-15.9s-7.2-16-16-16c-8.8,0-16,7.2-16,16S956.1,484.5,965,484.5z"
		/>
	<path id="XMLID_136_" class="st0" d="M1037.8,485.6l15.6-35.2c0.1-0.2,0.4-0.4,0.6-0.4h0.2c0.3,0,0.5,0.1,0.7,0.4l15.4,35.2
		c0.1,0.3,0.1,0.6-0.5,0.6h-1.3c-0.4,0-0.6-0.3-0.7-0.5l-4.1-9.3h-19.3l-4,9.3c-0.1,0.2-0.4,0.5-0.7,0.5h-1.4
		C1037.8,486.2,1037.6,486,1037.8,485.6z M1062.8,474.5l-8.6-20.4h-0.1l-8.8,20.4H1062.8z"/>
	<path id="XMLID_133_" class="st0" d="M1096.1,451.5c0-0.4,0.3-0.7,0.7-0.7h10.9c6.3,0,11.4,5.1,11.4,11.3c0,6.3-5.2,11.5-11.4,11.5
		h-9.2v11.9c0,0.4-0.3,0.7-0.8,0.7h-0.9c-0.4,0-0.7-0.3-0.7-0.7V451.5z M1107.5,471.3c5,0,9.1-4.1,9.1-9.2c0-5-4.2-8.9-9.2-8.9h-9
		v18.1L1107.5,471.3L1107.5,471.3z"/>
	<path id="XMLID_128_" class="st0" d="M1146.3,451.5c0-0.4,0.3-0.7,0.7-0.7h10.9c6.3,0,11.4,5.1,11.4,11.3c0,6.3-5.2,11.5-11.4,11.5
		h-9.2v11.9c0,0.4-0.3,0.7-0.8,0.7h-0.9c-0.4,0-0.7-0.3-0.7-0.7V451.5z M1157.8,471.3c5,0,9.1-4.1,9.1-9.2c0-5-4.2-8.9-9.2-8.9h-9
		v18.1L1157.8,471.3L1157.8,471.3z"/>
</g>
<path id="XMLID_129_" class="st0" d="M1166.9,401.6H599.3c-1.3,0-2.4-1.1-2.4-2.4v-5.3c0-1.3,1.1-2.4,2.4-2.4h567.6
	c1.3,0,2.4,1.1,2.4,2.4v5.3C1169.3,400.6,1168.2,401.6,1166.9,401.6z"/>
<g id="XMLID_198_">
	<path id="XMLID_236_" class="st1" d="M237.6,625.2c-0.1-0.9-0.1-1.8,0.4-2.5c0.5-0.6,1.4-0.8,2.2-0.9c5.8-0.6,11.9,1.4,16.3,5.3
		s7,9.7,7.1,15.6c-1.8-2.7-5.4-3.8-8.7-3.5c-3.3,0.3-6.3,1.6-9.4,2.8c-1.4,0.5-3,1-4.3,0.3c-1.4-0.8-1.8-2.5-2.1-4.1
		C238.6,633.8,238,629.5,237.6,625.2z"/>
	<path id="XMLID_235_" class="st2" d="M37.3,650.4c-0.2-0.5-0.4-1.1-0.5-1.7c3.2-2.3,6.9-4,10.7-5.1c7-2.1,14.4-2.5,21.7-2.9
		c21.5-1.1,42.9-2.2,64.4-3.3c-31.6-0.8-63.5-0.3-95,2.2c1.5-2.3,3.5-4.3,5.9-5.6c5.8-3.1,12.7-3.1,19.2-2.9
		c29.7,1,60.5,4.8,88.5-5.3c6-2.2,11.9-5,16.1-9.8c7.2-8.2,7.7-20.3,6.4-31.1s-4-22.3-2.2-33.1c6.9-2.5,14-4.8,21.3-5.2
		c0,16.3,0,33,5.5,48.4c2.6,7.3,6.8,14.5,13.7,18c5.8,2.9,12.5,2.7,18.9,3.6c6.4,0.9,13.3,3.7,15.6,9.7c2.5,6.5-1.8,14.1-7.9,17.6
		s-13.4,3.9-20.4,4.2c-9.2,0.4-18.7,4.8-27.8,5.6c-23.1,1.9-45.9,7.6-67.1,17c0.7,0.5-1.7,1.1-1,1.6c-15.3,8.2-33.5,10.7-50.4,7
		c-1.9-0.4-3.9-1.2-5-2.6c-0.1-4.3,0.4-8.5,1.6-12.6c1.7-5.6,5-11.2,10.2-13.9c4.3-2.2,9.4-2.2,14.3-2.4c21.1-0.5,42.2-3.9,62.5-10
		c-22.9,5.9-47,7.4-70.7,7.4c-7.1,0-15,0.1-20.1,5c-3.7,3.6-5,9.2-8.8,12.7c-4.6,4.2-11.1,4.2-17.3,2.7c-0.5-1-1-1.9-1.4-2.9
		C36.7,659.1,35.3,653.7,37.3,650.4z"/>
	<path id="XMLID_234_" class="st3" d="M133.6,637.5c-21.5,1.1-42.9,2.2-64.4,3.3c-7.3,0.4-14.7,0.8-21.7,2.9
		c-3.8,1.1-7.5,2.8-10.7,5.1c-0.7-3.1,0.1-6.3,1.8-9.1C70.2,637.1,102.1,636.6,133.6,637.5z"/>
	<path id="XMLID_233_" class="st3" d="M56.9,662.9c3.8-3.5,5.2-9,8.8-12.7c5.1-5,13-5,20.1-5c23.7,0,47.7-1.5,70.7-7.4
		c-20.3,6.1-41.3,9.4-62.5,10c-4.9,0.1-9.9,0.1-14.3,2.4c-5.3,2.7-8.5,8.2-10.2,13.9c-1.3,4.1-1.8,8.4-1.6,12.6
		c-0.5-0.7-0.9-1.5-0.8-2.4c-4,0.6-8.1,1.3-12.2,1s-8.2-1.5-11.3-4.2c-1.7-1.5-3-3.4-4.1-5.4C45.8,667.1,52.3,667.1,56.9,662.9z"/>
	<path id="XMLID_231_" class="st3" d="M355.6,669.7c-12.1-10.5-29.3-14.8-40.4-26.3c7.4,3.6,14.8,7.2,22.2,10.9
		c9.8,5.6,19.6,11.2,29.4,16.8c3.5,2,7.1,4,11,4.5c5.7,0.7,11.3-1.9,15.5-5.8c1,2.5,1.3,5.2,0.5,7.8c-1.6,4.8-6.9,7.7-12,8
		s-10.1-1.4-14.9-3v0.1C363.6,678,360,673.5,355.6,669.7z"/>
	<path id="XMLID_230_" class="st2" d="M248.2,650.9c4.6-8.3,10.1-16.3,12-25.6c4.1-19.8-9.4-40.7-3.2-59.9
		c6.7-4.9,17.5-6.4,24.9-2.5c-1.3,19.9,0.8,39.9,6.2,59.1c15,11.1,33.4,19.7,51.7,23.6c8.7,1.8,17.5,2.8,26.1,5.1s17,6,23.1,12.4
		c1.8,1.9,3.4,4.2,4.4,6.7c-4.2,3.9-9.8,6.5-15.5,5.8c-4-0.5-7.5-2.5-11-4.5c-9.8-5.6-19.6-11.2-29.4-16.8
		c-7.4-3.6-14.8-7.2-22.2-10.9c11.1,11.6,28.3,15.8,40.4,26.3c4.4,3.8,8,8.3,11.4,13c-0.5,2.2-1.3,4.2-2.4,6
		c-3.4-0.2-6.8,0.1-10.2,0.4c-5.6,0.6-11.4,1.3-16.8-0.3s-10.4-6.2-10.4-11.9c-2,1.1-3.9,2.2-5.9,3.3c-1.5-3.9-1.8-8.2-1-12.3
		c-3,1.1-5.2,4.1-5.4,7.3c-3.6-15.1-15.8-27.9-30.6-32.7c7.6,5.7,14.8,12.3,19.8,20.4c4.9,7.9,7.5,17.4,5.8,26.5
		c-0.8,1.7-2,3.3-3.5,4.2c-2.6,1.7-5.7,2.4-8.7,3.1c-10.7,2.5-21.9,4.3-32.6,1.8s-20.9-10.1-23.3-20.8
		C239.9,668.7,243.6,659.1,248.2,650.9z"/>
	<path id="XMLID_228_" class="st3" d="M304.2,663c-5-8.1-12.2-14.7-19.8-20.4c14.8,4.8,27,17.6,30.6,32.7c0.1-3.2,2.4-6.2,5.4-7.3
		c-0.8,4.1-0.4,8.4,1,12.3c2-1.1,3.9-2.2,5.9-3.3c0.1,5.6,5,10.3,10.4,11.9c5.4,1.6,11.2,0.9,16.8,0.3c3.4-0.4,6.8-0.7,10.2-0.4
		c-2.6,4.2-6.8,7.4-11.8,8.9c-7.2,2.2-15,1.2-22-1.5c-7-2.6-13.4-6.8-19.6-10.9c-0.1,1.4-0.5,2.9-1.1,4.3
		C311.7,680.4,309.1,670.9,304.2,663z"/>
	<path id="XMLID_227_" class="st4" d="M454.1,490.7c9.9,11.4,19.4,23,28.6,34.9c5.1,6.6,10.1,13.5,12.5,21.5s1.4,17.4-4.3,23.5
		c-16.1-21.1-33.6-41.1-52.2-60.1C446.3,505.6,451.1,498.6,454.1,490.7z"/>
	<path id="XMLID_224_" class="st4" d="M431,525c1.9,4.2,3.7,8.4,5.4,12.6c6.2,16.5,8.9,36-0.3,51.1c-10.5-16.2-21-32.3-31.4-48.5
		C415,538.7,425.6,533.7,431,525z"/>
	<path id="XMLID_223_" class="st5" d="M370.9,539.1c-2.8-15-6.6-29.8-11.5-44.2c7.9-22,26.9-43.3,47.9-53.4
		c16.3,15.7,31.9,32.1,46.7,49.2c-2.9,8-7.7,14.9-15.4,19.8c-7.3-7.4-14.7-14.7-22.4-21.8c3.2,12.7,9.3,24.4,14.7,36.3
		c-5.3,8.8-16,13.7-26.4,15.3c-4.4-6.8-8.8-13.5-13.1-20.3c-1.2,4.6-1,9.3-0.5,14C384.8,537.9,377.9,539.2,370.9,539.1z"/>
	<path id="XMLID_222_" class="st4" d="M391,534c0.2,1.9,0.5,3.8,0.7,5.6c0.8,6.5,1.4,13.4-1.1,19.5s-9.2,10.9-15.5,9.3
		c-0.9-9.8-2.3-19.6-4.1-29.3C377.9,539.2,384.8,537.9,391,534z"/>
	<path id="XMLID_221_" class="st1" d="M275.6,714c-3.2-8.5-6.3-17.1-6.8-26.2c-0.4-9,2.2-18.7,8.9-24.7c6.8,6.7,10.5,16.4,10.1,25.9
		C287.5,698.6,282.9,707.9,275.6,714z"/>
	<path id="XMLID_220_" class="st1" d="M349.4,664.3c1.7-0.7,3.6,0,5.2,0.8c8,4.2,13.6,12.7,14.2,21.7s-3.7,18.2-11.1,23.4
		c-0.2-4.7-0.4-9.7-2.6-13.9s-7-7.5-11.6-6.3c-1.3-7.5-0.3-15.3,3-22.2C347,666.4,347.9,664.9,349.4,664.3z"/>
	<path id="XMLID_219_" class="st1" d="M386.6,681.3c-2-0.9-3.3-2.7-4.4-4.5c-4-6.1-8.2-12.8-7.5-20.1c8.4-1.9,17.6,1.1,23.8,7.2
		c6.2,6,9.4,14.8,9.2,23.4c-2.1-4.1-6.7-6.7-11.3-6.4C393.1,681,389.6,682.6,386.6,681.3z"/>
	<path id="XMLID_218_" class="st1" d="M54.9,688.2c0-3.6,2.5-7,5.8-8.6s7.1-1.6,10.6-0.7c1.2,0.3,2.4,0.7,3.6,0.5
		c2.6-0.5,3.7-3.5,4.2-6c1.3-7.1,1.1-14.4-0.6-21.5c-8,1.4-15.3,6.2-19.7,12.9S53,680.3,54.9,688.2z"/>
	<path id="XMLID_217_" class="st1" d="M48.2,666.7c0.7-0.7,0.9-1.8,1-2.8c0.6-4.4,1.1-8.9,1.3-13.3c0.1-1.7,0.1-3.5-1.1-4.7
		c-1.2-1.1-3-1.1-4.6-0.8c-6.3,1.2-11.7,5.8-14.8,11.4c-3.1,5.6-4,12.2-3.7,18.7c0.7-3.2,2.9-6.1,5.8-7.7s6.4-2,9.6-1
		c1.1,0.4,2.2,0.9,3.3,1.1C46.1,667.7,47.4,667.6,48.2,666.7z"/>
	<path id="XMLID_216_" class="st1" d="M35.7,648.1c3.1,0.9,6.4,2.9,9.3,1.4c1.2-0.6,2-1.8,2.8-2.9c2.3-3.6,4-7.5,5.2-11.6
		c-7.2-3.8-16.3-3.4-23.1,1c-6.8,4.4-11,12.5-10.6,20.6C21.5,650.1,29.2,646.2,35.7,648.1z"/>
	<path id="XMLID_215_" class="st5" d="M44.3,332.4c6,10.6,5.8,23.5,5.1,35.7c-0.7,11.7-1.8,23.5-6.4,34.3
		c-3.3,7.7-8.7,14.7-15.7,19.1c-7-8.5-11.8-18.9-14.5-30.1C26.3,373.5,36.9,353.6,44.3,332.4z"/>
	<path id="XMLID_213_" class="st4" d="M1.3,408c1.7-4.2,4.7-7.7,7.5-11.2c1.4-1.8,2.8-3.5,4.1-5.4c2.6,11.2,7.4,21.6,14.5,30.1
		c-2.8,1.8-5.8,3.1-9.1,3.9c-5.8,1.4-12.9,0.5-16.3-4.4C-0.6,417.3-0.4,412.2,1.3,408z"/>
	<path id="XMLID_212_" class="st6" d="M269.2,76.9c3.8-14.6,12.4-27.8,23.7-37.6c9.4-8.2,20.8-14,33.1-16.4
		c12.6-2.4,25.6-1.3,38.1,1.4c17,3.7,33.8,10.8,46,23.3c12.3,12.5,19,29.5,23.1,46.5c4.7,19.7,6.2,40.3,2.1,60.1
		c-7.8,37.6-37,69.9-73.6,81.5c1.5-19-11.5-36.2-26.4-48.1c-1.9-1.5-3.9-3-5.8-4.4c-13.4-9.8-28.2-18-39.7-30
		C270.7,133.4,262.2,103.5,269.2,76.9z"/>
	<path id="XMLID_211_" class="st7" d="M376.8,87.4c-4.2-3.3-9.2-5.5-13.7-8.4s-8.8-6.6-10.6-11.7c-1.8-5-0.5-11.5,4.2-14.2
		c3.4-1.9,7.7-1.5,11.2,0.3c3.5,1.7,6.2,4.6,8.7,7.5c6.4,7.4,12.1,15.7,15.6,24.8s4.9,19.3,2.9,28.9
		C390.5,104.7,385.6,94.2,376.8,87.4z"/>
	<path id="XMLID_210_" class="st8" d="M181.7,196.5c-4.9,3.3-13-3.3-8.2-6.5c27.8-15.7,58.4-13.5,88.9-12c-6.2,0.3-12.3,1-18.2,2.7
		C222,177.1,199.6,179.8,181.7,196.5z"/>
	<path id="XMLID_209_" class="st9" d="M110.2,29.1c1.4-1.5,2.8-3.1,4.3-4.5c21.2-20.6,53.4-29.5,82-21.9
		c14.1,3.8,26.9,11.1,39.7,18.3c12.7,7.1,25.8,14.1,40.1,17.1c5.4,1.1,11.1,1.6,16.6,1.2c-11.4,9.8-19.9,23-23.7,37.6
		c-7,26.7,1.5,56.5,20.7,76.3c11.6,11.9,26.3,20.2,39.7,30c-3.6-1.1-7.3-2-11.1-2.6c-14.2-2.6-28.6-2.6-43-2.7
		c-4.3,0-8.7,0-13.1,0.2c-30.6-1.5-61.1-3.8-88.9,12c-4.9,3.3,3.3,9.8,8.2,6.5c18-16.8,40.3-19.5,62.6-15.8
		c-2.1,0.6-4.2,1.3-6.2,2.2c-14.4,6.3-24.8,19.4-38.7,26.8c-1.9,1-3.8,1.8-5.8,2.6c-11.4,4.3-24.4,4.5-35.4-0.7
		c-12.9-6-22.1-21.3-21.1-35.5c-25.6-14.8-44.4-41.3-49-70.5C83.7,78.5,91.9,49.5,110.2,29.1z"/>
	<path id="XMLID_208_" class="st8" d="M156.1,115.8c9,3.5,19.1,3.9,28.2,1.1c9.2-2.9,17.3-9.2,22.1-17.5c4.1-7,5.5-15.2,4.7-23.3
		c4.3,10.4,7.8,21.2,6.1,32.2c-2.1,13.7-12.8,25.4-26,29.8c-13.2,4.3-28.2,1.5-39.6-6.4c-11.3-8-18.9-20.8-21.6-34.4
		c-0.8-4.3-1.2-8.8-0.7-13.2C132,98.3,142.6,110.6,156.1,115.8z"/>
	<path id="XMLID_207_" class="st7" d="M145.7,45.5c4.7-3,10-4.9,15.5-5.8c15.4-2.5,32.1,3.5,41.7,15.8c4.6,5.9,7.4,13.2,8.2,20.6
		c0.9,8-0.6,16.3-4.7,23.3c-4.8,8.3-12.9,14.6-22.1,17.5s-19.3,2.4-28.2-1.1c-13.5-5.2-24.2-17.5-26.7-31.7c0-0.2-0.1-0.3-0.1-0.5
		C126.9,69.2,133.4,53.4,145.7,45.5z"/>
	<ellipse id="XMLID_206_" class="st1" cx="188.3" cy="81.1" rx="18.3" ry="29.1"/>
	<path id="XMLID_205_" class="st10" d="M188.3,105.3c7.9,0,13.4-12.8,13.4-24.2c0-11.4-5.5-24.2-13.4-24.2s-13.4,12.8-13.4,24.2
		S180.5,105.3,188.3,105.3z"/>
	
		<ellipse id="XMLID_204_" transform="matrix(0.9161 -0.4009 0.4009 0.9161 -11.7464 82.6201)" class="st11" cx="191.6" cy="69.4" rx="6" ry="10.3"/>
	<path id="XMLID_203_" class="st12" d="M190,315.3c15.5,39.8,43.5,73.6,75.4,102c8.9,8,18.6,16.2,22.3,27.6c4.8,15.1-3,32-15.3,41.9
		s-28.3,14-43.9,16.1c-30.6,4.1-62.2,1.7-91.8-7.2c-17.6-5.3-35-13-48.2-25.8c-18.2-17.6-26.9-43.3-28.7-68.6s2.5-50.5,6.8-75.5
		c5.3-30.9,10.6-61.7,16-92.6c2.6-14.9,5.2-30,12.4-43.3c5.8-10.8,14.6-19.8,25.1-26.2c5.2,4.7,10.9,9,17.1,12.5
		c-0.9,14.2,8.3,29.4,21.1,35.5c7.6,3.6,16.1,4.6,24.5,3.4C174,247.7,177.6,283.6,190,315.3z"/>
	<path id="XMLID_202_" class="st13" d="M30.6,338.4c4.8-25.2,17-48.4,31.5-69.7c12.4-18.2,13.1-42.1,9.7-63.8
		c-3.4-21.8-10.5-43-12.1-65c-2-28.1,5.3-56.7,20.5-80.3c7.9-12.3,18.2-22.3,30-30.5C91.9,49.6,83.7,78.6,88,105.7
		c3.5,22.2,15.3,42.9,32,58c-10.4,6.4-19.2,15.5-25.1,26.2c-7.2,13.3-9.8,28.4-12.4,43.3c-5.3,30.9-10.6,61.7-16,92.6
		c-4.3,25-8.6,50.2-6.8,75.5s10.5,51,28.7,68.6c13.2,12.8,30.5,20.5,48.2,25.8c29.6,8.8,61.1,11.3,91.8,7.2
		c15.7-2.1,31.6-6.2,43.9-16.1c12.3-9.9,20-26.8,15.3-41.9c-3.6-11.4-13.3-19.6-22.3-27.6c-31.9-28.4-59.9-62.2-75.4-102
		c-12.3-31.7-15.9-67.6-7.3-100.3c3.7-0.5,7.4-1.4,10.9-2.8c-1.1,6.6-1.1,13.3,0.3,19.8c4.8,21.4,24,36.7,44.2,45.2
		s42.2,11.7,62.8,19.2c55.4,20.1,97.5,72.9,104.9,131.4c12.6,10.1,17.6,27.4,14.5,43.3c-3.1,15.9-13.3,29.7-26.1,39.5
		c-12.8,9.9-28,16.1-43.4,21c-14.4,4.5-29.1,7.9-44,10.1c-11.5,9.2-20,23.7-26,37.1c-1.5-2.5-3-5-4.5-7.4
		c-1.9,6.2-3.7,12.4-5.6,18.6c-3-5.5-6.1-10.9-9.1-16.4c-1.3,2.7-2.6,5.3-3.9,8c-8.2-13.5-16.5-26.9-24.7-40.4
		c-8.2,0.1-16.4,0.2-24.6,0.3c-2.9,12-7.5,24.3-14.3,34.7c-0.9-4-3.1-7.8-6.4-10.4c-2,6.8-4,13.5-6,20.3
		c-3.4-6.2-6.9-12.3-10.3-18.5c-0.6,2.3-1.3,4.6-1.9,6.9c-11.1-17.2-24.6-32.8-40.1-46.2c-29.8-25.8-71.4-37.2-85.8-73.9
		c-5.9-15-8.8-31-11.2-46.9C28.8,384.6,26.2,361.2,30.6,338.4z"/>
	<path id="XMLID_201_" class="st4" d="M490.8,401.6c-4.3-6.1-11.6-9.1-18.5-11.7c-27.4-10.4-54.9-20.3-82.7-29.6
		c11.3-0.3,24.2,1.3,35,4.7c3.9-1.9,4.5-7.3,3.9-11.6c-0.9-6.5-3.1-12.8-6.5-18.4c15.4,6.1,29.8,14.8,42.4,25.6
		c2.7,2.3,5.5,5,6.5,8.4c1,3.5-0.1,8.5-3.6,9.5c13.6,4.2,26.6,10.5,38.3,18.7c3.5,2.4,7,5.1,9.2,8.7c2.2,3.6,2.9,8.4,0.8,12.1
		c-3.7,6.4-12.9,6-20.2,4.8c-1.1-0.2-2.3-0.4-3.4-0.6C495.2,415.6,494.9,407.5,490.8,401.6z"/>
	<path id="XMLID_200_" class="st5" d="M235.7,298.4c11.9-1.9,26.3,1.6,37.4,6.3s21.6,10.7,32.9,14.6c25.5,8.8,54.3,2.6,81,6.4
		c12,1.7,23.7,4.8,35,9.3c3.4,5.6,5.6,11.9,6.5,18.4c0.6,4.3,0,9.7-3.9,11.6c-10.8-3.4-23.7-5-35-4.7c27.8,9.3,55.3,19.2,82.7,29.6
		c6.9,2.6,14.3,5.6,18.5,11.7c4.1,5.9,4.4,14,1.3,20.5c-22.5-3.8-45.9-8-68.4-11.9c-15.7-4.9-31-10.8-45.9-17.8
		c-13.1,1.6-26.5,1.5-39.6-0.2C297.1,369.7,261.5,337.4,235.7,298.4z"/>
	<path id="XMLID_199_" class="st4" d="M377.7,392.4c14.9,6.9,30.2,12.9,45.9,17.8c-1.8-0.3-3.7-0.6-5.5-0.9
		c-2.2,4.6-7.4,7.2-12.5,7.6c-5.1,0.4-10.1-1-15-2.5c-18.2-5.6-35.8-13.1-52.5-22.2C351.3,393.9,364.6,394,377.7,392.4z"/>
</g>
</svg>
